<svg width="16" height="13" viewBox="0 0 16 13" fill="none" xmlns="http://www.w3.org/2000/svg">
<path d="M14.9999 0.99707C14.7347 0.99707 14.4803 1.10243 14.2928 1.28996C14.1053 1.4775 13.9999 1.73185 13.9999 1.99707V5.99707C13.9999 6.26229 13.8945 6.51664 13.707 6.70418C13.5195 6.89171 13.2651 6.99707 12.9999 6.99707H3.4099L4.7099 5.70707C4.8982 5.51877 5.00399 5.26337 5.00399 4.99707C5.00399 4.73077 4.8982 4.47537 4.7099 4.28707C4.52159 4.09877 4.2662 3.99298 3.9999 3.99298C3.73359 3.99298 3.4782 4.09877 3.2899 4.28707L0.289896 7.28707C0.198856 7.38217 0.127491 7.49432 0.0798963 7.61707C-0.0201217 7.86053 -0.0201217 8.13361 0.0798963 8.37707C0.127491 8.49982 0.198856 8.61197 0.289896 8.70707L3.2899 11.7071C3.38286 11.8008 3.49346 11.8752 3.61532 11.926C3.73718 11.9767 3.86788 12.0029 3.9999 12.0029C4.13191 12.0029 4.26261 11.9767 4.38447 11.926C4.50633 11.8752 4.61693 11.8008 4.7099 11.7071C4.80363 11.6141 4.87802 11.5035 4.92879 11.3816C4.97956 11.2598 5.00569 11.1291 5.00569 10.9971C5.00569 10.8651 4.97956 10.7344 4.92879 10.6125C4.87802 10.4906 4.80363 10.38 4.7099 10.2871L3.4099 8.99707H12.9999C13.7955 8.99707 14.5586 8.681 15.1212 8.11839C15.6838 7.55578 15.9999 6.79272 15.9999 5.99707V1.99707C15.9999 1.73185 15.8945 1.4775 15.707 1.28996C15.5195 1.10243 15.2651 0.99707 14.9999 0.99707Z" fill="#E9ECF7"/>
</svg>
