<svg width="24" height="24" viewBox="0 0 24 24" fill="#87C3F6" xmlns="http://www.w3.org/2000/svg">
<g clip-path="url(#clip0_22_130)">
<path d="M11.98 7.89999C12.4955 7.89999 12.9133 7.48212 12.9133 6.96666C12.9133 6.45119 12.4955 6.03333 11.98 6.03333C11.4645 6.03333 11.0467 6.45119 11.0467 6.96666C11.0467 7.48212 11.4645 7.89999 11.98 7.89999Z" fill="#87C3F6"/>
<path d="M14 16.6667H12.6667V9.39999H10.6667C10.4899 9.39999 10.3203 9.47023 10.1953 9.59526C10.0702 9.72028 10 9.88985 10 10.0667C10 10.2435 10.0702 10.413 10.1953 10.5381C10.3203 10.6631 10.4899 10.7333 10.6667 10.7333H11.3333V16.6667H10C9.8232 16.6667 9.65363 16.7369 9.52861 16.8619C9.40358 16.9869 9.33334 17.1565 9.33334 17.3333C9.33334 17.5101 9.40358 17.6797 9.52861 17.8047C9.65363 17.9298 9.8232 18 10 18H14C14.1768 18 14.3464 17.9298 14.4714 17.8047C14.5964 17.6797 14.6667 17.5101 14.6667 17.3333C14.6667 17.1565 14.5964 16.9869 14.4714 16.8619C14.3464 16.7369 14.1768 16.6667 14 16.6667Z" fill="#87C3F6"/>
<path d="M12 22.6667C9.89035 22.6667 7.82806 22.0411 6.07393 20.869C4.31981 19.697 2.95263 18.031 2.1453 16.082C1.33797 14.1329 1.12673 11.9882 1.53831 9.91905C1.94988 7.84992 2.96578 5.9493 4.45754 4.45754C5.9493 2.96578 7.84992 1.94988 9.91905 1.53831C11.9882 1.12673 14.1329 1.33797 16.082 2.1453C18.031 2.95263 19.697 4.31981 20.869 6.07393C22.0411 7.82806 22.6667 9.89035 22.6667 12C22.6667 14.829 21.5429 17.5421 19.5425 19.5425C17.5421 21.5429 14.829 22.6667 12 22.6667ZM12 2.66668C10.1541 2.66668 8.34955 3.21407 6.81469 4.23963C5.27983 5.26519 4.08356 6.72286 3.37714 8.4283C2.67072 10.1337 2.48589 12.0104 2.84602 13.8209C3.20615 15.6313 4.09506 17.2944 5.40035 18.5997C6.70564 19.905 8.36868 20.7939 10.1792 21.154C11.9897 21.5141 13.8663 21.3293 15.5717 20.6229C17.2772 19.9165 18.7348 18.7202 19.7604 17.1853C20.786 15.6505 21.3333 13.846 21.3333 12C21.3333 9.52466 20.35 7.15069 18.5997 5.40035C16.8493 3.65001 14.4754 2.66668 12 2.66668Z" fill="#87C3F6"/>
</g>
<defs>
<clipPath id="clip0_22_130">
<rect width="24" height="24" fill="#87C3F6"/>
</clipPath>
</defs>
</svg>